<svg width="35" height="36" viewBox="0 0 35 36" fill="none" xmlns="http://www.w3.org/2000/svg">
<path d="M18.0844 11.7568C18.1654 11.4324 18.1654 11.027 18.1654 10.6216C18.1654 10.2162 18.1654 9.89189 18.0844 9.48649L20.3546 7.86486C20.5979 7.7027 20.679 7.37838 20.5168 7.13514L18.3276 3.40541C18.1654 3.16216 17.9222 3.08108 17.679 3.16216L15.1654 4.37838C14.5979 3.89189 13.9492 3.56757 13.2195 3.24324L12.9763 0.486486C12.9763 0.243243 12.733 -3.093e-07 12.4898 -3.093e-07H8.19247C7.94923 -3.093e-07 7.70599 0.243243 7.70599 0.486486L7.38166 3.32432C6.65193 3.56757 6.08437 3.97297 5.43572 4.45946L2.9222 3.32432C2.67896 3.24324 2.35464 3.32432 2.27356 3.56757L0.0843664 7.2973C-0.0777957 7.54054 0.00328517 7.86486 0.246528 8.02703L2.5168 9.64865C2.43572 9.97297 2.43572 10.3784 2.43572 10.7838C2.43572 11.1892 2.43572 11.5135 2.5168 11.9189L0.246528 13.5405C0.00328517 13.7027 -0.0777957 14.027 0.0843664 14.2703L2.27356 18C2.43572 18.2432 2.67896 18.3243 2.9222 18.2432L5.43572 17.1081C6.00329 17.5946 6.65193 17.9189 7.38166 18.2432L7.62491 21C7.62491 21.2432 7.86815 21.4865 8.11139 21.4865H12.4087C12.6519 21.4865 12.8952 21.2432 12.8952 21L13.1384 18.2432C13.8682 18 14.4357 17.5946 15.0844 17.1081L17.5979 18.2432C17.8411 18.3243 18.1654 18.2432 18.2465 18L20.4357 14.2703C20.5979 14.027 20.5168 13.7027 20.2736 13.5405L18.0844 11.7568ZM10.3006 14.6757C8.03031 14.6757 6.24653 12.8919 6.24653 10.6216C6.24653 8.35135 8.03031 6.56757 10.3006 6.56757C12.5709 6.56757 14.3546 8.35135 14.3546 10.6216C14.3546 12.8919 12.5709 14.6757 10.3006 14.6757Z" transform="translate(0.75 14.5137)" fill="#E65100"/>
<path d="M16.7871 10.7838C16.8681 10.3784 16.8681 10.0541 16.8681 9.72973C16.8681 9.40541 16.8681 9.08108 16.7871 8.67568L18.8141 7.21622C19.0573 7.05405 19.0573 6.81081 18.9763 6.56757L16.9492 3.08108C16.7871 2.83784 16.5438 2.75676 16.3006 2.91892L13.9492 3.97297C13.3817 3.56757 12.8141 3.24324 12.1654 2.91892L11.9222 0.405405C12.0033 0.162162 11.8411 0 11.5979 0H7.62491C7.38166 0 7.13842 0.162162 7.13842 0.405405L6.89518 2.91892C6.24653 3.16216 5.67896 3.48649 5.11139 3.97297L2.76004 2.91892C2.5168 2.83784 2.27355 2.91892 2.11139 3.08108L0.0843657 6.56757C-0.0777964 6.81081 0.00328527 7.05405 0.246528 7.21622L2.27356 8.67568C2.27356 9.08108 2.27356 9.40541 2.27356 9.72973C2.27356 10.0541 2.27356 10.3784 2.35464 10.7838L0.32761 12.2432C0.0843666 12.4054 0.084366 12.6486 0.165447 12.8919L2.19247 16.3784C2.35464 16.6216 2.59788 16.7027 2.84112 16.5405L5.19247 15.4865C5.76004 15.8919 6.32761 16.2162 6.97626 16.5405L7.2195 19.0541C7.2195 19.2973 7.46274 19.4595 7.70599 19.4595H11.679C11.9222 19.4595 12.1654 19.2973 12.1654 19.0541L12.4087 16.5405C13.0573 16.2973 13.6249 15.973 14.1925 15.4865L16.5438 16.5405C16.7871 16.6216 17.0303 16.5405 17.1925 16.3784L19.2195 12.8919C19.3817 12.6486 19.3006 12.4054 19.0573 12.2432L16.7871 10.7838ZM9.57085 13.7838C7.30058 13.7838 5.5168 12 5.5168 9.72973C5.5168 7.45946 7.30058 5.67568 9.57085 5.67568C11.8411 5.67568 13.6249 7.45946 13.6249 9.72973C13.6249 12 11.8411 13.7838 9.57085 13.7838Z" transform="translate(15.2637)" fill="#FFA000"/>
</svg>
