<svg width="48" height="48" viewBox="0 0 48 48" fill="none" xmlns="http://www.w3.org/2000/svg">
<path d="M41.4625 6.53754C41.8885 4.6471 41.3622 2.41889 38.7385 0C34.4738 3.86041 35.6931 7.87446 37.1041 9.8063C37.1041 9.8063 36.9232 10.8959 32.7458 10.8959C28.5683 10.8959 0.0580729 10.8959 0.0580729 10.8959C0.0580729 10.8959 -1.93915 28.3293 17.4915 28.3293C34.4815 28.3293 39.2539 15.251 40.1855 11.9027C40.5712 11.955 41.0037 11.9887 41.4625 11.9855C43.8018 11.967 46.8341 10.7096 48 6.01017C44.9077 4.93911 42.9214 5.42397 41.4625 6.53754Z" transform="translate(0 12.4473)" fill="#03A9F4"/>
<path d="M-4.15645e-08 0C0.800848 5.16356 4.16005 13.0751 17.2536 13.0751C30.5303 13.0751 36.3465 5.08838 38.6989 0H-4.15645e-08Z" transform="translate(0.237793 27.7021)" fill="#0288D1"/>
<path d="M16.7699 7.55957C15.7674 7.20872 11.2435 6.37192 10.4372 0C5.85109 2.0299 1.78802 1.49818 4.15645e-09 1.09831C2.35569 4.61659 6.72277 7.62712 14.7955 7.62712C15.4743 7.62712 16.1292 7.60097 16.7699 7.55957Z" transform="translate(2.6958 33.1504)" fill="#81D4FA"/>
<path d="M2.17918 4.35836C3.38271 4.35836 4.35836 3.38271 4.35836 2.17918C4.35836 0.975651 3.38271 0 2.17918 0C0.975651 0 0 0.975651 0 2.17918C0 3.38271 0.975651 4.35836 2.17918 4.35836Z" transform="translate(15.3125 29.8809)" fill="white"/>
<path d="M14.071 8.27761C14.315 8.82785 14.0927 9.54371 13.5153 9.71369C9.91853 10.7739 6.81865 10.9144 4.47494 10.9144C3.77325 10.24 3.17397 9.52083 2.67058 8.77555C5.48717 8.77555 9.98173 8.6448 12.6338 7.72301C13.2026 7.5247 13.8269 7.72519 14.071 8.27761ZM0 1.08959C0 1.08959 2.04298 1.22579 3.26877 0C5.31175 1.83923 9.74093 1.18547 10.8959 0C12.0541 1.83923 18.4555 1.49819 19.6126 0C20.9746 1.56683 26.8311 1.90678 28.3293 0C28.8512 1.59189 35.7592 2.04189 37.046 0C38.2021 1.18547 42.5626 2.11162 45.012 0C45.6265 1.29443 47.9419 1.08959 47.9419 1.08959V2.17918H0V1.08959ZM16.3438 6.53754C16.3438 7.13899 16.832 7.62712 17.4334 7.62712C18.0349 7.62712 18.523 7.13899 18.523 6.53754C18.523 5.93608 18.0349 5.44795 17.4334 5.44795C16.832 5.44795 16.3438 5.93608 16.3438 6.53754Z" transform="translate(0.0581055 25.5234)" fill="#37474F"/>
<path d="M5.44795 10.8959H0V5.44795H5.44795V10.8959ZM16.3438 5.44795H10.8959V10.8959H16.3438V5.44795ZM27.2397 5.44795H21.7918V10.8959H27.2397V5.44795ZM10.8959 0H5.44795V5.44795H10.8959V0ZM21.7918 0H16.3438V5.44795H21.7918V0Z" transform="translate(4.4165 12.4473)" fill="#01579B"/>
<path d="M5.44795 16.3438H0V10.8959H5.44795V16.3438ZM16.3438 10.8959H10.8959V16.3438H16.3438V10.8959ZM16.3438 0H10.8959V5.44795H16.3438V0ZM10.8959 5.44795H5.44795V10.8959H10.8959V5.44795Z" transform="translate(9.86426 7)" fill="#0288D1"/>
</svg>
