<?xml version="1.0" standalone="no"?><!-- Generator: Gravit.io --><svg xmlns="http://www.w3.org/2000/svg" xmlns:xlink="http://www.w3.org/1999/xlink" style="isolation:isolate" viewBox="0 0 42 42" width="42" height="42"><defs><clipPath id="_clipPath_ovUaN2CULZdSYZ7PCVx1ukwgNGorYu0c"><rect width="42" height="42"/></clipPath></defs><g clip-path="url(#_clipPath_ovUaN2CULZdSYZ7PCVx1ukwgNGorYu0c)"><g id="icons/git"><g id="Vector"><path d=" M 27.331 9.836 C 25.061 9.836 23.162 11.521 23.162 13.534 C 23.162 14.985 24.112 16.202 25.43 16.858 C 24.798 19.525 22.318 20.742 18.837 22.146 C 17.991 22.475 17.148 22.847 16.356 23.222 C 16.356 12.318 16.356 12.318 16.356 12.318 C 17.781 11.756 18.837 10.445 18.837 8.947 C 18.837 6.888 16.936 5.25 14.669 5.25 C 12.347 5.25 10.5 6.936 10.5 8.947 C 10.5 10.445 11.503 11.756 12.98 12.318 C 12.98 28.886 12.98 28.886 12.98 28.886 L 12.98 26.079 L 12.98 29.682 C 11.555 30.244 10.5 31.553 10.5 33.052 C 10.5 35.112 12.399 36.75 14.669 36.75 C 16.99 36.75 18.837 35.064 18.837 33.052 C 18.837 31.553 17.834 30.244 16.356 29.682 C 16.356 27.482 16.356 27.482 16.356 27.482 C 16.356 26.546 17.834 25.891 20.26 24.908 C 23.638 23.551 28.068 21.726 28.913 16.998 C 30.443 16.436 31.497 15.125 31.497 13.534 C 31.497 11.474 29.597 9.836 27.331 9.836 Z  M 16.726 8.947 C 16.726 9.978 15.777 10.772 14.669 10.772 C 13.509 10.772 12.611 9.93 12.611 8.947 C 12.611 7.965 13.509 7.123 14.669 7.123 C 15.83 7.123 16.726 7.965 16.726 8.947 Z  M 12.611 33.052 C 12.611 32.023 13.561 31.226 14.669 31.226 C 15.83 31.226 16.726 32.068 16.726 33.052 C 16.726 34.081 15.777 34.877 14.669 34.877 C 13.509 34.877 12.611 34.035 12.611 33.052 Z  M 27.331 15.407 C 26.169 15.407 25.273 14.563 25.273 13.581 C 25.273 12.55 26.223 11.756 27.331 11.756 C 28.439 11.756 29.387 12.598 29.387 13.581 C 29.387 14.563 28.491 15.407 27.331 15.407 Z " fill-rule="evenodd" fill="rgb(63,174,238)"/></g></g></g></svg>